<?xml version="1.0" encoding="utf-8"?>
<?xml-stylesheet type="text/xsl" href="rss1.xsl"?>
<rss version="2.0" xmlns:atom="http://www.w3.org/2005/Atom" xmlns:content="http://purl.org/rss/1.0/modules/content/" xmlns:dc="http://purl.org/dc/elements/1.1/" xmlns:media="http://search.yahoo.com/mrss/">
<channel>
 <title>Getty</title>
 <link>http://www.gettyimg.com/</link>
 <atom:link href="http://www.gettyimg.com/" rel="self" type="application/rss+xml" />

 
                <item>
                <title><![CDATA[【Albums (lossy)】MP3 - Madonna - She's Breathless (1990) [Promo] [MP3 256 kbits-44100 Hz]]]></title>
                <link><![CDATA[https://sharemania.us/threads/madonna-shes-breathless-1990-promo-mp3-256-kbits-44100-hz.241478/]]></link>
                <description><![CDATA[<article>
<blockquote class="messageText SelectQuoteContainer ugc baseHtml">
<div style="text-align: center"><img src="https://i.ibb.co/W5yXm5r/promo-90-madonna.jpg" class="bbCodeImage LbImage" alt="[​IMG]" data-url="https://i.ibb.co/W5yXm5r/promo-90-madonna.jpg" style=""> ​</div><ol>
<li>Holiday (Edit)</li>
<li>Like A Virgin (Album Version)</li>
<li>Material Girl (Album Version)</li>
<li>Into The Groove (Album Version)</li>
<li>Angel (Album Version)</li>
<li>Dress You Up (Album Version)</li>
<li>Borderline (Edit)</li>
<li>Live To Tell (Edit)</li>
<li>Papa Don't Preach</li>
<li>True Blue</li>
<li>Open Your Heart (Remix Edit)</li>
<li>La Isla Bonita (Remix Edit)</li>
<li>Who's That Girl (Album Version)</li>
<li>Causing A Commotion</li>
<li>Like A Prayer</li>
<li>Express Yourself (Album Version)</li>
<li>Dear Jessie</li>
<li>Vogue (Single Version)</li>
<li>Hanky Panky (Album Version)</li>
</ol><span style="font-size: 9px">Warner Bros. PRO-1000-SB</span><br>
<div style="text-align: center"><br>
<div class="bbCodeBlock bbCodeVfcHH HiddenContent">
<div class="attribution type">Hidden Content:</div>
<blockquote>You must either reply or click 'Like' to see the hidden information contained here.</blockquote>
</div></div>
<div class="messageTextEndMarker">&nbsp;</div>
</blockquote>
</article>]]></description>
                <author><![CDATA[Fan Made]]></author>
                </item>

                
                <item>
                <title><![CDATA[【Apple Music】WEB-RiP - Imagine Dragons - Eyes Closed 1704p AM WEB-DL AAC2.0 H.265-SZYMIX]]></title>
                <link><![CDATA[https://sharemania.us/threads/imagine-dragons-eyes-closed-1704p-am-web-dl-aac2-0-h-265-szymix.241481/]]></link>
                <description><![CDATA[<article>
<blockquote class="messageText SelectQuoteContainer ugc baseHtml">
<img src="https://a5.mzstatic.com/us/r1000/0/Music211/v4/1d/30/02/1d3002fc-1433-dae6-e814-88e2cf6b3de9/24UMGIM21772.rgb.jpg" class="bbCodeImage LbImage" alt="[​IMG]" data-url="https://a5.mzstatic.com/us/r1000/0/Music211/v4/1d/30/02/1d3002fc-1433-dae6-e814-88e2cf6b3de9/24UMGIM21772.rgb.jpg" style=""> <br>
<img src="https://i.postimg.cc/DwSDMd8K/Imagine-Dragons-Eyes-Closed-1704p-AM-WEB-DL-AAC2-0-H-265-SZYMIX-mkv.jpg" class="bbCodeImage LbImage" alt="[​IMG]" data-url="https://i.postimg.cc/DwSDMd8K/Imagine-Dragons-Eyes-Closed-1704p-AM-WEB-DL-AAC2-0-H-265-SZYMIX-mkv.jpg" style=""> <br>
<div class="ToggleTriggerAnchor bbCodeSpoilerContainer">
<button type="button" class="button bbCodeSpoilerButton ToggleTrigger Tooltip JsOnly" data-target="> .SpoilerTarget"><span>Spoiler: <span class="SpoilerTitle">Media Info</span></span></button>
<div class="SpoilerTarget bbCodeSpoilerText">General<br>
Complete name : Imagine Dragons - Eyes Closed 1704p AM WEB-DL AAC2.0 H.265-SZYMIX.mkv<br>
Format : MPEG-4<br>
Format profile : Base Media<br>
Codec ID : isom (isom/iso4)<br>
File size : 622 MiB<br>
Duration : 4 min 8 s<br>
Overall bit rate mode : Variable<br>
Overall bit rate : 21.0 Mb/s<br>
Frame rate : 24.000 FPS<br>
Movie name : Eyes Closed<br>
Performer : Imagine Dragons<br>
Genre : Alternative<br>
ContentType : Music Video<br>
Encoded date : 2024-04-05 11:56:55 UTC<br>
Tagged date : 2024-04-05 11:56:55 UTC<br>
Copyright : ℗ 2024 KIDinaKORNER/Interscope Records<br>
Cover : Yes<br>
Rating : None<br>
GenreID : 1620<br>
AppleStoreCountry : United States<br>
AlbumTitleID : 358714030<br>
AppleStoreCatalogID : 1738967348<br>
FileExtension_Invalid : braw mov mp4 m4v m4a m4b m4p m4r 3ga 3gpa 3gpp 3gp 3gpp2 3g2 k3g jpm jpx mqv ismv isma ismt f4a f4b f4v<br>
<br>
Video<br>
ID : 2<br>
Format : HEVC<br>
Format/Info : High Efficiency Video Coding<br>
Format profile : Main 10@L5@High<br>
Codec ID : hvc1<br>
Codec ID/Info : High Efficiency Video Coding<br>
Duration : 4 min 8 s<br>
Bit rate : 20.7 Mb/s<br>
Maximum bit rate : 50.3 Mb/s<br>
Width : 3 840 pixels<br>
Height : 1 704 pixels<br>
Display aspect ratio : 2.25:1<br>
Frame rate mode : Constant<br>
Frame rate : 24.000 FPS<br>
Color space : YUV<br>
Chroma subsampling : 4:2:0<br>
Bit depth : 10 bits<br>
Scan type : Progressive<br>
Bits/(Pixel*Frame) : 0.132<br>
Stream size : 614 MiB (99%)<br>
Title : Core Media Video<br>
Language : English<br>
Encoded date : 2024-04-01 23:43:54 UTC<br>
Tagged date : 2024-04-05 11:56:56 UTC<br>
Color range : Limited<br>
Color primaries : BT.709<br>
Transfer characteristics : BT.709<br>
Matrix coefficients : BT.709<br>
Codec configuration box : hvcC<br>
<br>
Audio<br>
ID : 1<br>
Format : AAC LC<br>
Format/Info : Advanced Audio Codec Low Complexity<br>
Codec ID : 2 / 40 / mp4a-40-2<br>
Duration : 4 min 8 s<br>
Duration_LastFrame : -8 ms<br>
Bit rate mode : Variable<br>
Bit rate : 258 kb/s<br>
Maximum bit rate : 330 kb/s<br>
Channel(s) : 2 channels<br>
Channel layout : L R<br>
Sampling rate : 48.0 kHz<br>
Frame rate : 46.875 FPS (1024 SPF)<br>
Compression mode : Lossy<br>
Stream size : 7.65 MiB (1%)<br>
Title : Core Media Audio<br>
Encoded date : 2024-04-01 23:23:30 UTC<br>
Tagged date : 2024-04-05 11:56:56 UTC<br>
<br>
Text<br>
ID : 3<br>
Format : EIA-608<br>
Codec ID : c608<br>
Duration : 1 min 6 s<br>
Bit rate mode : Variable<br>
Bit rate : 131 b/s<br>
Maximum bit rate : 944 b/s<br>
Frame rate : 0.454 FPS<br>
Stream size : 1.05 KiB (0%)<br>
Title : Core Media Closed Caption<br>
Language : English<br>
Forced : No<br>
Encoded date : 2024-04-01 23:43:54 UTC<br>
Tagged date : 2024-04-05 11:56:56 UTC</div>
</div>Ripped by me <img src="styles/default/xenforo/smilies/big_smile-48.png" class="mceSmilie" alt=":)" title="Smile    :)"><br>
<div class="bbCodeBlock bbCodeVfcHH HiddenContent">
<div class="attribution type">Hidden Content:</div>
<blockquote>You must either reply or click 'Like' to see the hidden information contained here.</blockquote>
</div>
<div class="messageTextEndMarker">&nbsp;</div>
</blockquote>
</article>]]></description>
                <author><![CDATA[szymek04sawicki]]></author>
                </item>

                
                <item>
                <title><![CDATA[【Requests】[REQ AUD] - Dead Or Alive - Gone 2 Long (Pete Hammond Hi-NRG Remix)]]></title>
                <link><![CDATA[https://sharemania.us/threads/dead-or-alive-gone-2-long-pete-hammond-hi-nrg-remix.241482/]]></link>
                <description><![CDATA[<article>
<blockquote class="messageText SelectQuoteContainer ugc baseHtml">
AAAAAAAAAA
<div class="messageTextEndMarker">&nbsp;</div>
</blockquote>
</article>]]></description>
                <author><![CDATA[goreo1971]]></author>
                </item>

                </channel></rss>